STARTFONT 2.1
FONT -FontForge-Bitstream Vera Sans-Bold-R-Normal-Sans--24-240-75-75-P-157-ISO10646-1
SIZE 24 75 75
FONTBOUNDINGBOX 39 28 -5 -6
COMMENT "Generated by fontforge, http://fontforge.sourceforge.net"
COMMENT "Copyright (c) 2003 by Bitstream, Inc. All Rights Reserved."
STARTPROPERTIES 40
FOUNDRY "FontForge"
FAMILY_NAME "Bitstream Vera Sans"
WEIGHT_NAME "Bold"
SLANT "R"
SETWIDTH_NAME "Normal"
ADD_STYLE_NAME "Sans"
PIXEL_SIZE 24
POINT_SIZE 240
RESOLUTION_X 75
RESOLUTION_Y 75
SPACING "P"
AVERAGE_WIDTH 157
CHARSET_REGISTRY "ISO10646"
CHARSET_ENCODING "1"
FONTNAME_REGISTRY ""
CHARSET_COLLECTIONS "ISO8859-9 ISO10646-1"
FONT_NAME "BitstreamVeraSans-Bold"
FACE_NAME "Bitstream Vera Sans Bold"
COPYRIGHT "Copyright (c) 2003 by Bitstream, Inc. All Rights Reserved."
FONT_VERSION "Release 1.10"
FONT_ASCENT 18
FONT_DESCENT 6
UNDERLINE_POSITION -4
UNDERLINE_THICKNESS 4
X_HEIGHT 12
CAP_HEIGHT 17
RAW_ASCENT 759
RAW_DESCENT 240
NORM_SPACE 8
RELATIVE_WEIGHT 70
RELATIVE_SETWIDTH 50
SUPERSCRIPT_X 0
SUPERSCRIPT_Y 6
SUPERSCRIPT_SIZE 14
SUBSCRIPT_X 0
SUBSCRIPT_Y -5
SUBSCRIPT_SIZE 14
FIGURE_WIDTH 17
AVG_LOWERCASE_WIDTH 153
AVG_UPPERCASE_WIDTH 177
ENDPROPERTIES
CHARS 267
STARTCHAR space
ENCODING 32
SWIDTH 348 0
DWIDTH 8 0
BBX 1 1 0 0
BITMAP
00
ENDCHAR
STARTCHAR exclam
ENCODING 33
SWIDTH 456 0
DWIDTH 11 0
BBX 4 18 3 0
BITMAP
F0
F0
F0
F0
F0
F0
F0
F0
F0
F0
F0
F0
00
00
F0
F0
F0
F0
ENDCHAR
STARTCHAR quotedbl
ENCODING 34
SWIDTH 520 0
DWIDTH 13 0
BBX 8 7 2 11
BITMAP
E7
E7
E7
E7
E7
E7
E7
ENDCHAR
STARTCHAR numbersign
ENCODING 35
SWIDTH 837 0
DWIDTH 20 0
BBX 17 18 2 0
BITMAP
038E00
038E00
038C00
031C00
071C00
7FFF80
7FFF80
7FFF80
063800
0E3800
0E3000
FFFF00
FFFF00
FFFF00
1C7000
1C6000
18E000
38E000
ENDCHAR
STARTCHAR dollar
ENCODING 36
SWIDTH 695 0
DWIDTH 17 0
BBX 14 23 1 -4
BITMAP
0300
0300
0300
1FE0
7FF8
7FF8
FB18
F300
F300
FF80
7FF0
3FF8
07FC
037C
033C
C33C
FFF8
FFF8
3FE0
0300
0300
0300
0300
ENDCHAR
STARTCHAR percent
ENCODING 37
SWIDTH 1001 0
DWIDTH 24 0
BBX 23 18 1 0
BITMAP
3E00C0
7F0180
F78380
E38300
E38600
E38E00
E38C00
F79C00
7F18F8
3E31FC
0073DE
00638E
00E38E
01C38E
01838E
0383DE
0301FC
0600F8
ENDCHAR
STARTCHAR ampersand
ENCODING 38
SWIDTH 872 0
DWIDTH 21 0
BBX 18 18 1 0
BITMAP
03F000
0FF800
1FF800
1E0800
1E0000
1E0000
1F0000
1F8000
3FC780
7FE780
FBF700
F1FF00
F0FE00
F07E00
F83E00
7FFF00
3FFF80
0FCFC0
ENDCHAR
STARTCHAR quotesingle
ENCODING 39
SWIDTH 306 0
DWIDTH 7 0
BBX 3 7 2 11
BITMAP
E0
E0
E0
E0
E0
E0
E0
ENDCHAR
STARTCHAR parenleft
ENCODING 40
SWIDTH 457 0
DWIDTH 11 0
BBX 7 21 2 -3
BITMAP
1E
1C
3C
38
78
78
70
F0
F0
F0
F0
F0
F0
F0
70
78
78
38
3C
1C
1E
ENDCHAR
STARTCHAR parenright
ENCODING 41
SWIDTH 457 0
DWIDTH 11 0
BBX 7 21 2 -3
BITMAP
F0
70
78
38
3C
3C
1C
1E
1E
1E
1E
1E
1E
1E
1C
3C
3C
38
78
70
F0
ENDCHAR
STARTCHAR asterisk
ENCODING 42
SWIDTH 522 0
DWIDTH 13 0
BBX 12 11 0 7
BITMAP
0600
0600
4620
F6F0
3FC0
0F00
3FC0
F6F0
4620
0600
0600
ENDCHAR
STARTCHAR plus
ENCODING 43
SWIDTH 837 0
DWIDTH 20 0
BBX 15 15 3 0
BITMAP
0380
0380
0380
0380
0380
0380
FFFE
FFFE
FFFE
0380
0380
0380
0380
0380
0380
ENDCHAR
STARTCHAR comma
ENCODING 44
SWIDTH 379 0
DWIDTH 9 0
BBX 5 8 1 -3
BITMAP
78
78
78
78
78
70
F0
E0
ENDCHAR
STARTCHAR hyphen
ENCODING 45
SWIDTH 415 0
DWIDTH 10 0
BBX 7 3 1 6
BITMAP
FE
FE
FE
ENDCHAR
STARTCHAR period
ENCODING 46
SWIDTH 379 0
DWIDTH 9 0
BBX 4 5 2 0
BITMAP
F0
F0
F0
F0
F0
ENDCHAR
STARTCHAR slash
ENCODING 47
SWIDTH 365 0
DWIDTH 9 0
BBX 9 20 0 -2
BITMAP
0380
0380
0300
0700
0700
0600
0E00
0E00
0C00
1C00
1C00
1800
3800
3800
3000
7000
7000
6000
E000
E000
ENDCHAR
STARTCHAR zero
ENCODING 48
SWIDTH 695 0
DWIDTH 17 0
BBX 14 18 1 0
BITMAP
0FC0
1FE0
3FF0
7878
7878
F03C
F03C
F03C
F03C
F03C
F03C
F03C
F03C
7878
7878
3FF0
1FE0
0FC0
ENDCHAR
STARTCHAR one
ENCODING 49
SWIDTH 695 0
DWIDTH 17 0
BBX 12 18 3 0
BITMAP
3F00
FF00
FF00
CF00
0F00
0F00
0F00
0F00
0F00
0F00
0F00
0F00
0F00
0F00
0F00
FFF0
FFF0
FFF0
ENDCHAR
STARTCHAR two
ENCODING 50
SWIDTH 695 0
DWIDTH 17 0
BBX 13 18 2 0
BITMAP
3F80
FFE0
FFF0
E0F8
8078
0078
0078
0078
00F8
01F0
07E0
0FC0
1F80
3F00
7E00
FFF8
FFF8
FFF8
ENDCHAR
STARTCHAR three
ENCODING 51
SWIDTH 695 0
DWIDTH 17 0
BBX 13 18 1 0
BITMAP
1FC0
7FF0
7FF8
40F8
0078
0078
00F0
1FE0
1FE0
1FF0
00F8
0078
0078
0078
C0F8
FFF0
FFE0
3F80
ENDCHAR
STARTCHAR four
ENCODING 52
SWIDTH 695 0
DWIDTH 17 0
BBX 15 18 1 0
BITMAP
01F0
03F0
07F0
07F0
0FF0
1EF0
1CF0
3CF0
38F0
78F0
F0F0
E0F0
FFFE
FFFE
FFFE
00F0
00F0
00F0
ENDCHAR
STARTCHAR five
ENCODING 53
SWIDTH 695 0
DWIDTH 17 0
BBX 13 18 2 0
BITMAP
7FF0
7FF0
7FF0
7800
7800
7800
7FC0
7FE0
7FF0
40F8
0078
0078
0078
0078
C0F8
FFF0
FFE0
3F80
ENDCHAR
STARTCHAR six
ENCODING 54
SWIDTH 695 0
DWIDTH 17 0
BBX 14 18 1 0
BITMAP
07F0
1FF8
3FF8
7C08
7800
F000
F7E0
FFF0
FFF8
F87C
F03C
F03C
F03C
703C
7878
3FF8
1FF0
0FC0
ENDCHAR
STARTCHAR seven
ENCODING 55
SWIDTH 695 0
DWIDTH 17 0
BBX 13 18 2 0
BITMAP
FFF8
FFF8
FFF8
00F8
00F0
01F0
01E0
03E0
03C0
03C0
07C0
0780
0F80
0F00
1F00
1E00
1E00
3E00
ENDCHAR
STARTCHAR eight
ENCODING 56
SWIDTH 695 0
DWIDTH 17 0
BBX 14 18 1 0
BITMAP
1FE0
7FF8
FFFC
F87C
F03C
F03C
F878
7FF8
1FE0
7FF8
7878
F03C
F03C
F03C
F87C
7FF8
3FF0
1FE0
ENDCHAR
STARTCHAR nine
ENCODING 57
SWIDTH 695 0
DWIDTH 17 0
BBX 14 18 1 0
BITMAP
0FC0
3FE0
7FF0
7878
F038
F03C
F03C
F03C
F87C
7FFC
3FFC
1FBC
0038
0078
40F8
7FF0
7FE0
3F80
ENDCHAR
STARTCHAR colon
ENCODING 58
SWIDTH 399 0
DWIDTH 10 0
BBX 4 13 3 0
BITMAP
F0
F0
F0
F0
F0
00
00
00
F0
F0
F0
F0
F0
ENDCHAR
STARTCHAR semicolon
ENCODING 59
SWIDTH 399 0
DWIDTH 10 0
BBX 5 16 2 -3
BITMAP
78
78
78
78
78
00
00
00
78
78
78
78
78
70
F0
E0
ENDCHAR
STARTCHAR less
ENCODING 60
SWIDTH 837 0
DWIDTH 20 0
BBX 15 14 3 0
BITMAP
0002
001E
00FE
03FC
1FE0
FF00
F800
F800
FF00
1FE0
03FC
00FE
001E
0002
ENDCHAR
STARTCHAR equal
ENCODING 61
SWIDTH 837 0
DWIDTH 20 0
BBX 15 9 3 3
BITMAP
FFFE
FFFE
FFFE
0000
0000
0000
FFFE
FFFE
FFFE
ENDCHAR
STARTCHAR greater
ENCODING 62
SWIDTH 837 0
DWIDTH 20 0
BBX 15 14 3 0
BITMAP
8000
F000
FE00
7F80
0FF0
01FE
003E
003E
01FE
0FF0
7F80
FE00
F000
8000
ENDCHAR
STARTCHAR question
ENCODING 63
SWIDTH 580 0
DWIDTH 14 0
BBX 11 18 2 0
BITMAP
FF00
FFC0
FFE0
C3E0
01E0
01E0
03C0
0FC0
1F00
3E00
3C00
3C00
0000
0000
3C00
3C00
3C00
3C00
ENDCHAR
STARTCHAR at
ENCODING 64
SWIDTH 1000 0
DWIDTH 24 0
BBX 21 21 2 -3
BITMAP
01FC00
07FF00
0F03C0
1C00E0
300070
70F730
63FF38
E38F18
C70718
C70718
C70718
C70718
C70730
C38F70
63FFE0
70F780
300000
1C0080
0F0380
07FF00
01FC00
ENDCHAR
STARTCHAR A
ENCODING 65
SWIDTH 773 0
DWIDTH 19 0
BBX 18 18 0 0
BITMAP
03F000
03F000
07F800
07F800
07F800
0FFC00
0F3C00
0F3C00
1F3E00
1E1E00
1E1E00
3E1F00
3FFF00
3FFF00
7FFF80
780780
780780
F003C0
ENDCHAR
STARTCHAR B
ENCODING 66
SWIDTH 762 0
DWIDTH 18 0
BBX 14 18 2 0
BITMAP
FFC0
FFF0
FFF8
F0F8
F078
F078
F0F8
FFF0
FFF0
FFF8
F07C
F03C
F03C
F03C
F07C
FFF8
FFF8
FFE0
ENDCHAR
STARTCHAR C
ENCODING 67
SWIDTH 733 0
DWIDTH 18 0
BBX 15 18 1 0
BITMAP
03F8
0FFE
3FFE
3E0E
7C02
7800
F000
F000
F000
F000
F000
F000
7800
7C02
3E0E
3FFE
0FFE
03F8
ENDCHAR
STARTCHAR D
ENCODING 68
SWIDTH 830 0
DWIDTH 20 0
BBX 16 18 2 0
BITMAP
FFC0
FFF0
FFF8
F07C
F03E
F01E
F00F
F00F
F00F
F00F
F00F
F00F
F01E
F03E
F07C
FFFC
FFF0
FFC0
ENDCHAR
STARTCHAR E
ENCODING 69
SWIDTH 683 0
DWIDTH 16 0
BBX 12 18 2 0
BITMAP
FFF0
FFF0
FFF0
F000
F000
F000
F000
FFE0
FFE0
FFE0
F000
F000
F000
F000
F000
FFF0
FFF0
FFF0
ENDCHAR
STARTCHAR F
ENCODING 70
SWIDTH 683 0
DWIDTH 16 0
BBX 12 18 2 0
BITMAP
FFF0
FFF0
FFF0
F000
F000
F000
F000
FFF0
FFF0
FFF0
F000
F000
F000
F000
F000
F000
F000
F000
ENDCHAR
STARTCHAR G
ENCODING 71
SWIDTH 820 0
DWIDTH 20 0
BBX 17 18 1 0
BITMAP
03FC00
0FFF00
3FFF00
3E0700
7C0100
780000
F00000
F00000
F03F80
F03F80
F03F80
F00780
780780
7C0780
3E0780
1FFF80
0FFF80
03FC00
ENDCHAR
STARTCHAR H
ENCODING 72
SWIDTH 836 0
DWIDTH 20 0
BBX 16 18 2 0
BITMAP
F00F
F00F
F00F
F00F
F00F
F00F
F00F
FFFF
FFFF
FFFF
F00F
F00F
F00F
F00F
F00F
F00F
F00F
F00F
ENDCHAR
STARTCHAR I
ENCODING 73
SWIDTH 372 0
DWIDTH 9 0
BBX 4 18 2 0
BITMAP
F0
F0
F0
F0
F0
F0
F0
F0
F0
F0
F0
F0
F0
F0
F0
F0
F0
F0
ENDCHAR
STARTCHAR J
ENCODING 74
SWIDTH 372 0
DWIDTH 9 0
BBX 8 23 -2 -5
BITMAP
0F
0F
0F
0F
0F
0F
0F
0F
0F
0F
0F
0F
0F
0F
0F
0F
0F
0F
0F
1F
FE
FC
F0
ENDCHAR
STARTCHAR K
ENCODING 75
SWIDTH 774 0
DWIDTH 19 0
BBX 17 18 2 0
BITMAP
F03F00
F07E00
F0F800
F1F000
F3E000
F7C000
FF8000
FF0000
FE0000
FF0000
FF8000
F7C000
F3E000
F1F000
F0F800
F07C00
F03E00
F01F80
ENDCHAR
STARTCHAR L
ENCODING 76
SWIDTH 637 0
DWIDTH 15 0
BBX 12 18 2 0
BITMAP
F000
F000
F000
F000
F000
F000
F000
F000
F000
F000
F000
F000
F000
F000
F000
FFF0
FFF0
FFF0
ENDCHAR
STARTCHAR M
ENCODING 77
SWIDTH 995 0
DWIDTH 24 0
BBX 19 18 2 0
BITMAP
F803E0
FC07E0
FC07E0
FE0FE0
FE0FE0
FE0FE0
F71DE0
F71DE0
F7BDE0
F3B9E0
F3B9E0
F1F1E0
F1F1E0
F1F1E0
F0E1E0
F001E0
F001E0
F001E0
ENDCHAR
STARTCHAR N
ENCODING 78
SWIDTH 836 0
DWIDTH 20 0
BBX 16 18 2 0
BITMAP
F80F
FC0F
FC0F
FE0F
FE0F
FF0F
F70F
F78F
F38F
F1CF
F1CF
F0EF
F0EF
F07F
F07F
F03F
F03F
F01F
ENDCHAR
STARTCHAR O
ENCODING 79
SWIDTH 850 0
DWIDTH 20 0
BBX 18 18 1 0
BITMAP
03F000
1FFE00
3FFF00
7E1F80
780780
F80780
F003C0
F003C0
F003C0
F003C0
F003C0
F003C0
F80780
780780
7E1F80
3FFF00
1FFC00
03F000
ENDCHAR
STARTCHAR P
ENCODING 80
SWIDTH 732 0
DWIDTH 18 0
BBX 14 18 2 0
BITMAP
FFE0
FFF0
FFF8
F07C
F03C
F03C
F03C
F07C
FFF8
FFF0
FFE0
F000
F000
F000
F000
F000
F000
F000
ENDCHAR
STARTCHAR Q
ENCODING 81
SWIDTH 850 0
DWIDTH 20 0
BBX 18 22 1 -4
BITMAP
03F000
1FFE00
3FFF00
7E1F80
780780
F80780
F003C0
F003C0
F003C0
F003C0
F003C0
F003C0
F807C0
780780
7E1F80
3FFF00
1FFE00
03FC00
003E00
001E00
001F00
000F80
ENDCHAR
STARTCHAR R
ENCODING 82
SWIDTH 770 0
DWIDTH 18 0
BBX 16 18 2 0
BITMAP
FFE0
FFF8
FFF8
F07C
F03C
F03C
F03C
F078
FFF8
FFE0
FFF0
F0F8
F07C
F03C
F03E
F01E
F01E
F01F
ENDCHAR
STARTCHAR S
ENCODING 83
SWIDTH 720 0
DWIDTH 17 0
BBX 14 18 2 0
BITMAP
1FF0
3FF8
7FF8
F838
F008
F000
F800
FF80
7FF0
3FF8
07FC
007C
003C
803C
E07C
FFF8
FFF0
3FC0
ENDCHAR
STARTCHAR T
ENCODING 84
SWIDTH 682 0
DWIDTH 16 0
BBX 16 18 0 0
BITMAP
FFFF
FFFF
FFFF
03C0
03C0
03C0
03C0
03C0
03C0
03C0
03C0
03C0
03C0
03C0
03C0
03C0
03C0
03C0
ENDCHAR
STARTCHAR U
ENCODING 85
SWIDTH 812 0
DWIDTH 19 0
BBX 15 18 2 0
BITMAP
F01E
F01E
F01E
F01E
F01E
F01E
F01E
F01E
F01E
F01E
F01E
F01E
F01E
F03E
783C
7FFC
3FF8
0FE0
ENDCHAR
STARTCHAR V
ENCODING 86
SWIDTH 773 0
DWIDTH 19 0
BBX 18 18 0 0
BITMAP
F003C0
780780
780780
780780
3C0F00
3C0F00
3E1F00
1E1E00
1E1E00
1F3E00
0F3C00
0F3C00
0FFC00
07F800
07F800
07F800
03F000
03F000
ENDCHAR
STARTCHAR W
ENCODING 87
SWIDTH 1103 0
DWIDTH 26 0
BBX 25 18 1 0
BITMAP
F03E0780
F03E0780
783E0F00
783E0F00
78770F00
78770F00
3C771F00
3C771E00
3CE39E00
3CE39E00
3EE3BE00
1EE3BC00
1FE3FC00
1FC1FC00
1FC1FC00
0FC1F800
0FC1F800
0F80F800
ENDCHAR
STARTCHAR X
ENCODING 88
SWIDTH 770 0
DWIDTH 19 0
BBX 18 18 0 0
BITMAP
F807C0
7C0F80
3E1F00
3E1F00
1F3E00
0FFC00
07F800
07F800
03F000
03F000
07F800
0FFC00
0F3C00
1F3E00
3E1F00
3C0F00
7C0F80
F807C0
ENDCHAR
STARTCHAR Y
ENCODING 89
SWIDTH 724 0
DWIDTH 17 0
BBX 18 18 -1 0
BITMAP
F807C0
7C0F80
3C1F00
3E1F00
1F3E00
0F7C00
0FFC00
07F800
03F000
03F000
01E000
01E000
01E000
01E000
01E000
01E000
01E000
01E000
ENDCHAR
STARTCHAR Z
ENCODING 90
SWIDTH 725 0
DWIDTH 17 0
BBX 15 18 1 0
BITMAP
FFFE
FFFE
FFFE
007E
007C
00F8
01F0
03E0
07C0
07C0
0F80
1F00
3E00
7C00
FC00
FFFE
FFFE
FFFE
ENDCHAR
STARTCHAR bracketleft
ENCODING 91
SWIDTH 457 0
DWIDTH 11 0
BBX 7 21 2 -3
BITMAP
FE
FE
FE
F0
F0
F0
F0
F0
F0
F0
F0
F0
F0
F0
F0
F0
F0
F0
FE
FE
FE
ENDCHAR
STARTCHAR backslash
ENCODING 92
SWIDTH 365 0
DWIDTH 9 0
BBX 9 20 0 -2
BITMAP
E000
E000
6000
7000
7000
3000
3800
3800
1800
1C00
1C00
0C00
0E00
0E00
0600
0700
0700
0300
0380
0380
ENDCHAR
STARTCHAR bracketright
ENCODING 93
SWIDTH 457 0
DWIDTH 11 0
BBX 7 21 2 -3
BITMAP
FE
FE
FE
1E
1E
1E
1E
1E
1E
1E
1E
1E
1E
1E
1E
1E
1E
1E
FE
FE
FE
ENDCHAR
STARTCHAR asciicircum
ENCODING 94
SWIDTH 837 0
DWIDTH 20 0
BBX 15 7 2 11
BITMAP
0380
07C0
0FE0
1EF0
3C78
783C
E00E
ENDCHAR
STARTCHAR underscore
ENCODING 95
SWIDTH 500 0
DWIDTH 12 0
BBX 12 2 0 -6
BITMAP
FFF0
FFF0
ENDCHAR
STARTCHAR grave
ENCODING 96
SWIDTH 500 0
DWIDTH 12 0
BBX 6 4 2 15
BITMAP
E0
70
38
1C
ENDCHAR
STARTCHAR a
ENCODING 97
SWIDTH 674 0
DWIDTH 16 0
BBX 13 13 1 0
BITMAP
1FC0
7FF0
7FF0
40F8
0078
1FF8
7FF8
FFF8
F078
F0F8
FFF8
7FF8
3E78
ENDCHAR
STARTCHAR b
ENCODING 98
SWIDTH 715 0
DWIDTH 17 0
BBX 14 18 2 0
BITMAP
F000
F000
F000
F000
F000
F3E0
FFF0
FFF8
F878
F03C
F03C
F03C
F03C
F03C
F878
FFF8
FFF0
F3E0
ENDCHAR
STARTCHAR c
ENCODING 99
SWIDTH 592 0
DWIDTH 14 0
BBX 12 13 1 0
BITMAP
0FE0
3FF0
7FF0
7C10
F800
F000
F000
F000
F800
7C10
7FF0
3FF0
0FE0
ENDCHAR
STARTCHAR d
ENCODING 100
SWIDTH 715 0
DWIDTH 17 0
BBX 14 18 1 0
BITMAP
003C
003C
003C
003C
003C
1F3C
3FFC
7FFC
787C
F03C
F03C
F03C
F03C
F03C
787C
7FFC
3FFC
1F3C
ENDCHAR
STARTCHAR e
ENCODING 101
SWIDTH 678 0
DWIDTH 16 0
BBX 14 13 1 0
BITMAP
0FC0
3FF0
7FF8
7878
F03C
FFFC
FFFC
FFFC
F000
7818
7FF8
3FF8
0FE0
ENDCHAR
STARTCHAR f
ENCODING 102
SWIDTH 435 0
DWIDTH 10 0
BBX 10 18 1 0
BITMAP
0FC0
1FC0
3FC0
3C00
3C00
FFC0
FFC0
FFC0
3C00
3C00
3C00
3C00
3C00
3C00
3C00
3C00
3C00
3C00
ENDCHAR
STARTCHAR g
ENCODING 103
SWIDTH 715 0
DWIDTH 17 0
BBX 14 18 1 -5
BITMAP
1F3C
3FFC
7FFC
787C
F03C
F03C
F03C
F03C
F03C
787C
7FFC
3FFC
1F3C
003C
207C
3FF8
3FF0
1FC0
ENDCHAR
STARTCHAR h
ENCODING 104
SWIDTH 711 0
DWIDTH 17 0
BBX 13 18 2 0
BITMAP
F000
F000
F000
F000
F000
F3E0
FFF0
FFF8
F8F8
F078
F078
F078
F078
F078
F078
F078
F078
F078
ENDCHAR
STARTCHAR i
ENCODING 105
SWIDTH 342 0
DWIDTH 8 0
BBX 4 18 2 0
BITMAP
F0
F0
F0
F0
00
F0
F0
F0
F0
F0
F0
F0
F0
F0
F0
F0
F0
F0
ENDCHAR
STARTCHAR j
ENCODING 106
SWIDTH 342 0
DWIDTH 8 0
BBX 7 23 -1 -5
BITMAP
1E
1E
1E
1E
00
1E
1E
1E
1E
1E
1E
1E
1E
1E
1E
1E
1E
1E
1E
3E
FC
FC
F8
ENDCHAR
STARTCHAR k
ENCODING 107
SWIDTH 665 0
DWIDTH 16 0
BBX 14 18 2 0
BITMAP
F000
F000
F000
F000
F000
F0F8
F1F0
F3E0
F7C0
FF80
FF00
FF00
FF80
F7C0
F3E0
F1F0
F0F8
F07C
ENDCHAR
STARTCHAR l
ENCODING 108
SWIDTH 342 0
DWIDTH 8 0
BBX 4 18 2 0
BITMAP
F0
F0
F0
F0
F0
F0
F0
F0
F0
F0
F0
F0
F0
F0
F0
F0
F0
F0
ENDCHAR
STARTCHAR m
ENCODING 109
SWIDTH 1041 0
DWIDTH 25 0
BBX 20 13 2 0
BITMAP
F3C3C0
FFEFE0
FFFFF0
F8F8F0
F0F0F0
F0F0F0
F0F0F0
F0F0F0
F0F0F0
F0F0F0
F0F0F0
F0F0F0
F0F0F0
ENDCHAR
STARTCHAR n
ENCODING 110
SWIDTH 711 0
DWIDTH 17 0
BBX 13 13 2 0
BITMAP
F3E0
FFF0
FFF8
F8F8
F078
F078
F078
F078
F078
F078
F078
F078
F078
ENDCHAR
STARTCHAR o
ENCODING 111
SWIDTH 687 0
DWIDTH 16 0
BBX 14 13 1 0
BITMAP
0FC0
3FF0
7FF8
7878
F03C
F03C
F03C
F03C
F03C
7878
7FF8
3FF0
0FC0
ENDCHAR
STARTCHAR p
ENCODING 112
SWIDTH 715 0
DWIDTH 17 0
BBX 14 18 2 -5
BITMAP
F3E0
FFF0
FFF8
F878
F03C
F03C
F03C
F03C
F03C
F878
FFF8
FFF0
F3E0
F000
F000
F000
F000
F000
ENDCHAR
STARTCHAR q
ENCODING 113
SWIDTH 715 0
DWIDTH 17 0
BBX 14 18 1 -5
BITMAP
1F3C
3FFC
7FFC
787C
F03C
F03C
F03C
F03C
F03C
787C
7FFC
3FFC
1F3C
003C
003C
003C
003C
003C
ENDCHAR
STARTCHAR r
ENCODING 114
SWIDTH 493 0
DWIDTH 12 0
BBX 10 13 2 0
BITMAP
F3C0
FFC0
FFC0
FC40
F800
F000
F000
F000
F000
F000
F000
F000
F000
ENDCHAR
STARTCHAR s
ENCODING 115
SWIDTH 595 0
DWIDTH 14 0
BBX 12 13 1 0
BITMAP
3F80
7FE0
FFE0
F060
F800
FFC0
7FE0
0FF0
00F0
C0F0
FFF0
FFE0
3F80
ENDCHAR
STARTCHAR t
ENCODING 116
SWIDTH 478 0
DWIDTH 11 0
BBX 10 17 0 0
BITMAP
3C00
3C00
3C00
3C00
FFC0
FFC0
FFC0
3C00
3C00
3C00
3C00
3C00
3C00
3C00
3FC0
1FC0
0FC0
ENDCHAR
STARTCHAR u
ENCODING 117
SWIDTH 711 0
DWIDTH 17 0
BBX 13 13 2 0
BITMAP
F078
F078
F078
F078
F078
F078
F078
F078
F078
F8F8
FFF8
7F78
3E78
ENDCHAR
STARTCHAR v
ENCODING 118
SWIDTH 651 0
DWIDTH 16 0
BBX 15 13 0 0
BITMAP
F01E
783C
783C
783C
3C78
3C78
1C70
1EF0
1EF0
0EE0
0FE0
07C0
07C0
ENDCHAR
STARTCHAR w
ENCODING 119
SWIDTH 923 0
DWIDTH 22 0
BBX 21 13 1 0
BITMAP
F07078
F8F8F8
78F8F0
78F8F0
78F8F0
7DDDF0
3DDDE0
3DDDE0
3DDDE0
1F8FC0
1F8FC0
1F8FC0
1F8FC0
ENDCHAR
STARTCHAR x
ENCODING 120
SWIDTH 645 0
DWIDTH 15 0
BBX 15 13 0 0
BITMAP
F83E
7C7C
3EF8
1EF0
0FE0
0FE0
07C0
0FE0
0FE0
1EF0
3C78
7C7C
F83E
ENDCHAR
STARTCHAR y
ENCODING 121
SWIDTH 651 0
DWIDTH 16 0
BBX 15 18 0 -5
BITMAP
F83E
783C
783C
3C7C
3C78
3EF8
1EF0
1FF0
0FF0
0FE0
07E0
07C0
07C0
07C0
0780
3F80
3F00
3E00
ENDCHAR
STARTCHAR z
ENCODING 122
SWIDTH 582 0
DWIDTH 14 0
BBX 12 13 1 0
BITMAP
FFF0
FFF0
FFF0
03E0
07E0
0FC0
1F80
3F00
7E00
7C00
FFF0
FFF0
FFF0
ENDCHAR
STARTCHAR braceleft
ENCODING 123
SWIDTH 711 0
DWIDTH 17 0
BBX 11 22 3 -4
BITMAP
03E0
07E0
0FE0
0F00
0F00
0F00
0F00
0F00
0F00
1F00
FE00
FC00
FE00
1F00
0F00
0F00
0F00
0F00
0F00
0FE0
07E0
03E0
ENDCHAR
STARTCHAR bar
ENCODING 124
SWIDTH 365 0
DWIDTH 9 0
BBX 3 24 3 -6
BITMAP
E0
E0
E0
E0
E0
E0
E0
E0
E0
E0
E0
E0
E0
E0
E0
E0
E0
E0
E0
E0
E0
E0
E0
E0
ENDCHAR
STARTCHAR braceright
ENCODING 125
SWIDTH 711 0
DWIDTH 17 0
BBX 11 22 3 -4
BITMAP
F800
FC00
FE00
1E00
1E00
1E00
1E00
1E00
1E00
1F00
0FE0
07E0
0FE0
1F00
1E00
1E00
1E00
1E00
1E00
FE00
FC00
F800
ENDCHAR
STARTCHAR asciitilde
ENCODING 126
SWIDTH 837 0
DWIDTH 20 0
BBX 15 5 3 5
BITMAP
3E02
7F86
FFFE
C3FC
00F8
ENDCHAR
STARTCHAR nonbreakingspace
ENCODING 160
SWIDTH 695 0
DWIDTH 17 0
BBX 1 1 0 0
BITMAP
00
ENDCHAR
STARTCHAR exclamdown
ENCODING 161
SWIDTH 456 0
DWIDTH 11 0
BBX 4 18 3 0
BITMAP
F0
F0
F0
F0
00
00
F0
F0
F0
F0
F0
F0
F0
F0
F0
F0
F0
F0
ENDCHAR
STARTCHAR cent
ENCODING 162
SWIDTH 695 0
DWIDTH 17 0
BBX 11 20 2 -4
BITMAP
0300
0300
0300
0FC0
3FE0
7FE0
7F20
FB00
F300
F300
F300
FB00
7F20
7FE0
3FE0
0FC0
0300
0300
0300
0300
ENDCHAR
STARTCHAR sterling
ENCODING 163
SWIDTH 695 0
DWIDTH 17 0
BBX 13 18 1 0
BITMAP
03F0
0FF8
0FF8
1F08
1E00
1E00
1E00
1E00
7FE0
7FE0
7FE0
1E00
1E00
1E00
1E00
FFF8
FFF8
FFF8
ENDCHAR
STARTCHAR currency
ENCODING 164
SWIDTH 636 0
DWIDTH 15 0
BBX 14 14 1 1
BITMAP
4008
601C
FFF8
3FF0
3870
3030
3030
3030
3030
3870
3FF0
7FF8
E018
4000
ENDCHAR
STARTCHAR yen
ENCODING 165
SWIDTH 695 0
DWIDTH 17 0
BBX 16 18 0 0
BITMAP
F81F
7C3E
3C3E
3E7C
1E78
1FF8
0FF0
7FFE
7FFE
03C0
03C0
7FFE
7FFE
03C0
03C0
03C0
03C0
03C0
ENDCHAR
STARTCHAR brokenbar
ENCODING 166
SWIDTH 365 0
DWIDTH 9 0
BBX 3 21 3 -4
BITMAP
E0
E0
E0
E0
E0
E0
E0
E0
E0
00
00
00
E0
E0
E0
E0
E0
E0
E0
E0
E0
ENDCHAR
STARTCHAR section
ENCODING 167
SWIDTH 500 0
DWIDTH 12 0
BBX 12 20 1 -2
BITMAP
1FC0
3FC0
7840
7800
7C00
3F00
3FC0
7FE0
F1F0
F0F0
F0F0
F8F0
7FE0
3FC0
0FC0
03E0
01E0
61E0
7FC0
7F80
ENDCHAR
STARTCHAR dieresis
ENCODING 168
SWIDTH 500 0
DWIDTH 12 0
BBX 8 3 2 16
BITMAP
E7
E7
E7
ENDCHAR
STARTCHAR copyright
ENCODING 169
SWIDTH 1000 0
DWIDTH 24 0
BBX 17 17 3 0
BITMAP
03E000
0FF800
3C1E00
300600
61F300
E7F300
CF1180
CE0180
CE0180
CE0180
CF1180
67F300
61F300
300600
3C1E00
0FF800
03E000
ENDCHAR
STARTCHAR ordfeminine
ENCODING 170
SWIDTH 563 0
DWIDTH 14 0
BBX 10 13 2 5
BITMAP
3F00
7F80
03C0
01C0
3FC0
FFC0
E1C0
E3C0
FFC0
7DC0
0000
FFC0
FFC0
ENDCHAR
STARTCHAR guillemotleft
ENCODING 171
SWIDTH 645 0
DWIDTH 16 0
BBX 12 11 2 1
BITMAP
0410
0C30
1C70
79E0
F3C0
E300
F3C0
79E0
1C70
0C30
0410
ENDCHAR
STARTCHAR logicalnot
ENCODING 172
SWIDTH 837 0
DWIDTH 20 0
BBX 15 7 3 4
BITMAP
FFFE
FFFE
FFFE
000E
000E
000E
000E
ENDCHAR
STARTCHAR sfthyphen
ENCODING 173
SWIDTH 415 0
DWIDTH 10 0
BBX 7 3 1 6
BITMAP
FE
FE
FE
ENDCHAR
STARTCHAR registered
ENCODING 174
SWIDTH 1000 0
DWIDTH 24 0
BBX 17 17 3 0
BITMAP
03E000
0FF800
3C1E00
300600
67E300
E7F300
C77180
C77180
C7F180
C7C180
C7E180
676300
677300
300600
3C1E00
0FF800
03E000
ENDCHAR
STARTCHAR macron
ENCODING 175
SWIDTH 500 0
DWIDTH 12 0
BBX 7 2 2 16
BITMAP
FE
FE
ENDCHAR
STARTCHAR degree
ENCODING 176
SWIDTH 500 0
DWIDTH 12 0
BBX 8 8 2 10
BITMAP
3C
7E
E7
C3
C3
E7
7E
3C
ENDCHAR
STARTCHAR plusminus
ENCODING 177
SWIDTH 837 0
DWIDTH 20 0
BBX 15 15 3 0
BITMAP
0380
0380
0380
0380
FFFE
FFFE
FFFE
0380
0380
0380
0380
0000
FFFE
FFFE
FFFE
ENDCHAR
STARTCHAR twosuperior
ENCODING 178
SWIDTH 437 0
DWIDTH 11 0
BBX 8 10 1 8
BITMAP
7C
FF
87
07
0E
1E
38
70
FF
FF
ENDCHAR
STARTCHAR threesuperior
ENCODING 179
SWIDTH 437 0
DWIDTH 11 0
BBX 8 10 1 8
BITMAP
FE
FF
87
07
3E
3E
07
87
FF
FC
ENDCHAR
STARTCHAR acute
ENCODING 180
SWIDTH 500 0
DWIDTH 12 0
BBX 6 4 4 15
BITMAP
1C
38
70
E0
ENDCHAR
STARTCHAR mu
ENCODING 181
SWIDTH 735 0
DWIDTH 18 0
BBX 15 18 2 -5
BITMAP
F078
F078
F078
F078
F078
F078
F078
F078
F078
F8F8
FFFE
FFFE
F79E
F000
F000
F000
F000
F000
ENDCHAR
STARTCHAR paragraph
ENCODING 182
SWIDTH 636 0
DWIDTH 15 0
BBX 11 20 2 -2
BITMAP
1FE0
7FE0
7E60
FE60
FE60
FE60
FE60
7E60
7E60
1E60
0660
0660
0660
0660
0660
0660
0660
0660
0660
0660
ENDCHAR
STARTCHAR periodcentered
ENCODING 183
SWIDTH 379 0
DWIDTH 9 0
BBX 4 5 2 6
BITMAP
F0
F0
F0
F0
F0
ENDCHAR
STARTCHAR cedilla
ENCODING 184
SWIDTH 500 0
DWIDTH 12 0
BBX 5 5 3 -5
BITMAP
30
18
18
F8
F0
ENDCHAR
STARTCHAR onesuperior
ENCODING 185
SWIDTH 437 0
DWIDTH 11 0
BBX 8 10 1 8
BITMAP
3C
FC
DC
1C
1C
1C
1C
1C
7F
7F
ENDCHAR
STARTCHAR ordmasculine
ENCODING 186
SWIDTH 563 0
DWIDTH 14 0
BBX 11 13 1 5
BITMAP
1F00
7FC0
71C0
E0E0
E0E0
E0E0
E0E0
71C0
7FC0
1F00
0000
7FC0
7FC0
ENDCHAR
STARTCHAR guillemotright
ENCODING 187
SWIDTH 645 0
DWIDTH 16 0
BBX 12 11 2 1
BITMAP
8200
C300
E380
79E0
3CF0
0C70
3CF0
79E0
E380
C300
8200
ENDCHAR
STARTCHAR onequarter
ENCODING 188
SWIDTH 1035 0
DWIDTH 25 0
BBX 22 18 1 0
BITMAP
3C01C0
FC0180
DC0300
1C0300
1C0600
1C0E00
1C0C00
1C1C00
7F1870
7F38F0
0031F0
0061F0
006370
00C670
01C7FC
0187FC
038070
030070
ENDCHAR
STARTCHAR onehalf
ENCODING 189
SWIDTH 1035 0
DWIDTH 25 0
BBX 23 18 1 0
BITMAP
3C00C0
FC01C0
DC0180
1C0300
1C0300
1C0600
1C0E00
1C0C00
7F1DF8
7F19FE
00310E
00700E
00601C
00E03C
00C070
0180E0
0181FE
0301FE
ENDCHAR
STARTCHAR threequarters
ENCODING 190
SWIDTH 1035 0
DWIDTH 25 0
BBX 22 18 1 0
BITMAP
FE0180
FF0180
870300
070700
3E0600
3E0E00
070C00
871800
FF3870
FC30F0
0071F0
0061F0
00C370
00C670
0187FC
0387FC
030070
070070
ENDCHAR
STARTCHAR questiondown
ENCODING 191
SWIDTH 580 0
DWIDTH 14 0
BBX 11 18 2 0
BITMAP
0780
0780
0780
0780
0000
0000
0780
0780
0F80
1F00
7E00
7800
F000
F000
F860
FFE0
7FE0
1FE0
ENDCHAR
STARTCHAR Agrave
ENCODING 192
SWIDTH 773 0
DWIDTH 19 0
BBX 18 22 0 0
BITMAP
038000
01C000
00E000
000000
03F000
03F000
07F800
07F800
07F800
0FFC00
0F3C00
0F3C00
1F3E00
1E1E00
1E1E00
3E1F00
3FFF00
3FFF00
7FFF80
780780
780780
F003C0
ENDCHAR
STARTCHAR Aacute
ENCODING 193
SWIDTH 773 0
DWIDTH 19 0
BBX 18 22 0 0
BITMAP
007000
00E000
01C000
000000
03F000
03F000
07F800
07F800
07F800
0FFC00
0F3C00
0F3C00
1F3E00
1E1E00
1E1E00
3E1F00
3FFF00
3FFF00
7FFF80
780780
780780
F003C0
ENDCHAR
STARTCHAR Acircumflex
ENCODING 194
SWIDTH 773 0
DWIDTH 19 0
BBX 18 22 0 0
BITMAP
01F000
03B800
071C00
000000
03F000
03F000
07F800
07F800
07F800
0FFC00
0F3C00
0F3C00
1F3E00
1E1E00
1E1E00
3E1F00
3FFF00
3FFF00
7FFF80
780780
780780
F003C0
ENDCHAR
STARTCHAR Atilde
ENCODING 195
SWIDTH 773 0
DWIDTH 19 0
BBX 18 22 0 0
BITMAP
039800
07F800
067000
000000
03F000
03F000
07F800
07F800
07F800
0FFC00
0F3C00
0F3C00
1F3E00
1E1E00
1E1E00
3E1F00
3FFF00
3FFF00
7FFF80
780780
780780
F003C0
ENDCHAR
STARTCHAR Adieresis
ENCODING 196
SWIDTH 773 0
DWIDTH 19 0
BBX 18 22 0 0
BITMAP
073800
073800
073800
000000
03F000
03F000
07F800
07F800
07F800
0FFC00
0F3C00
0F3C00
1F3E00
1E1E00
1E1E00
3E1F00
3FFF00
3FFF00
7FFF80
780780
780780
F003C0
ENDCHAR
STARTCHAR Aring
ENCODING 197
SWIDTH 773 0
DWIDTH 19 0
BBX 18 22 0 0
BITMAP
01E000
03F000
033000
033000
03F000
03F000
03F000
07F800
07F800
07F800
0FFC00
0F3C00
0F3C00
1E1E00
1E1E00
3E1F00
3FFF00
3FFF00
7FFF80
780780
780780
F003C0
ENDCHAR
STARTCHAR AE
ENCODING 198
SWIDTH 1084 0
DWIDTH 26 0
BBX 24 18 0 0
BITMAP
01FFFF
01FFFF
03FFFF
03CF00
03CF00
078F00
078F00
0F8FFE
0F0FFE
1F0FFE
1E0F00
1FFF00
3FFF00
3FFF00
7C0F00
780FFF
780FFF
F80FFF
ENDCHAR
STARTCHAR Ccedilla
ENCODING 199
SWIDTH 733 0
DWIDTH 18 0
BBX 15 23 1 -5
BITMAP
03F8
0FFE
3FFE
3E0E
7C02
7800
F000
F000
F000
F000
F000
F000
7800
7C02
3E0E
3FFE
0FFE
03F8
0040
0060
0060
03E0
03E0
ENDCHAR
STARTCHAR Egrave
ENCODING 200
SWIDTH 683 0
DWIDTH 16 0
BBX 12 22 2 0
BITMAP
1C00
0E00
0700
0000
FFF0
FFF0
FFF0
F000
F000
F000
F000
FFE0
FFE0
FFE0
F000
F000
F000
F000
F000
FFF0
FFF0
FFF0
ENDCHAR
STARTCHAR Eacute
ENCODING 201
SWIDTH 683 0
DWIDTH 16 0
BBX 12 22 2 0
BITMAP
03C0
0700
0600
0000
FFF0
FFF0
FFF0
F000
F000
F000
F000
FFE0
FFE0
FFE0
F000
F000
F000
F000
F000
FFF0
FFF0
FFF0
ENDCHAR
STARTCHAR Ecircumflex
ENCODING 202
SWIDTH 683 0
DWIDTH 16 0
BBX 12 22 2 0
BITMAP
0F80
1DC0
18E0
0000
FFF0
FFF0
FFF0
F000
F000
F000
F000
FFE0
FFE0
FFE0
F000
F000
F000
F000
F000
FFF0
FFF0
FFF0
ENDCHAR
STARTCHAR Edieresis
ENCODING 203
SWIDTH 683 0
DWIDTH 16 0
BBX 12 22 2 0
BITMAP
39C0
39C0
39C0
0000
FFF0
FFF0
FFF0
F000
F000
F000
F000
FFE0
FFE0
FFE0
F000
F000
F000
F000
F000
FFF0
FFF0
FFF0
ENDCHAR
STARTCHAR Igrave
ENCODING 204
SWIDTH 372 0
DWIDTH 9 0
BBX 5 22 1 0
BITMAP
E0
70
38
00
78
78
78
78
78
78
78
78
78
78
78
78
78
78
78
78
78
78
ENDCHAR
STARTCHAR Iacute
ENCODING 205
SWIDTH 372 0
DWIDTH 9 0
BBX 6 22 2 0
BITMAP
3C
70
60
00
F0
F0
F0
F0
F0
F0
F0
F0
F0
F0
F0
F0
F0
F0
F0
F0
F0
F0
ENDCHAR
STARTCHAR Icircumflex
ENCODING 206
SWIDTH 372 0
DWIDTH 9 0
BBX 8 22 1 0
BITMAP
7C
EE
C7
00
78
78
78
78
78
78
78
78
78
78
78
78
78
78
78
78
78
78
ENDCHAR
STARTCHAR Idieresis
ENCODING 207
SWIDTH 372 0
DWIDTH 9 0
BBX 8 22 0 0
BITMAP
E7
E7
E7
00
3C
3C
3C
3C
3C
3C
3C
3C
3C
3C
3C
3C
3C
3C
3C
3C
3C
3C
ENDCHAR
STARTCHAR Eth
ENCODING 208
SWIDTH 837 0
DWIDTH 20 0
BBX 18 18 0 0
BITMAP
3FF000
3FFC00
3FFE00
3C1F00
3C0F80
3C0780
3C03C0
FF83C0
FF83C0
FF83C0
3C03C0
3C03C0
3C0780
3C0F80
3C1F00
3FFF00
3FFC00
3FF000
ENDCHAR
STARTCHAR Ntilde
ENCODING 209
SWIDTH 836 0
DWIDTH 20 0
BBX 16 22 2 0
BITMAP
0F30
0FE0
0DE0
0000
F80F
FC0F
FC0F
FE0F
FE0F
FF0F
F70F
F78F
F38F
F1CF
F1CF
F0EF
F0EF
F07F
F07F
F03F
F03F
F01F
ENDCHAR
STARTCHAR Ograve
ENCODING 210
SWIDTH 850 0
DWIDTH 20 0
BBX 18 22 1 0
BITMAP
078000
01C000
00E000
000000
03F000
1FFE00
3FFF00
7E1F80
780780
F80780
F003C0
F003C0
F003C0
F003C0
F003C0
F003C0
F80780
780780
7E1F80
3FFF00
1FFC00
03F000
ENDCHAR
STARTCHAR Oacute
ENCODING 211
SWIDTH 850 0
DWIDTH 20 0
BBX 18 22 1 0
BITMAP
007000
00E000
01C000
000000
03F000
1FFE00
3FFF00
7E1F80
780780
F80780
F003C0
F003C0
F003C0
F003C0
F003C0
F003C0
F80780
780780
7E1F80
3FFF00
1FFC00
03F000
ENDCHAR
STARTCHAR Ocircumflex
ENCODING 212
SWIDTH 850 0
DWIDTH 20 0
BBX 18 22 1 0
BITMAP
01F000
03B800
071800
000000
03F000
1FFE00
3FFF00
7E1F80
780780
F80780
F003C0
F003C0
F003C0
F003C0
F003C0
F003C0
F80780
780780
7E1F80
3FFF00
1FFC00
03F000
ENDCHAR
STARTCHAR Otilde
ENCODING 213
SWIDTH 850 0
DWIDTH 20 0
BBX 18 22 1 0
BITMAP
039800
07F800
067000
000000
03F000
1FFE00
3FFF00
7E1F80
780780
F80780
F003C0
F003C0
F003C0
F003C0
F003C0
F003C0
F80780
780780
7E1F80
3FFF00
1FFC00
03F000
ENDCHAR
STARTCHAR Odieresis
ENCODING 214
SWIDTH 850 0
DWIDTH 20 0
BBX 18 22 1 0
BITMAP
073800
073800
073800
000000
03F000
1FFE00
3FFF00
7E1F80
780780
F80780
F003C0
F003C0
F003C0
F003C0
F003C0
F003C0
F80780
780780
7E1F80
3FFF00
1FFC00
03F000
ENDCHAR
STARTCHAR multiply
ENCODING 215
SWIDTH 837 0
DWIDTH 20 0
BBX 14 14 3 1
BITMAP
4008
E01C
7038
3870
1CE0
0FC0
0780
0780
0FC0
1CE0
3870
7038
E01C
4008
ENDCHAR
STARTCHAR Oslash
ENCODING 216
SWIDTH 850 0
DWIDTH 20 0
BBX 19 18 0 0
BITMAP
01FC60
07FFE0
1FFFC0
1F0FC0
3C07C0
3C0FE0
781DE0
7839E0
7871E0
78E1E0
79C1E0
7B81E0
7F03C0
3C03C0
3F0F80
3FFF80
6FFE00
E3F800
ENDCHAR
STARTCHAR Ugrave
ENCODING 217
SWIDTH 812 0
DWIDTH 19 0
BBX 15 22 2 0
BITMAP
0E00
0700
0380
0000
F01E
F01E
F01E
F01E
F01E
F01E
F01E
F01E
F01E
F01E
F01E
F01E
F01E
F03E
783C
7FFC
3FF8
0FE0
ENDCHAR
STARTCHAR Uacute
ENCODING 218
SWIDTH 812 0
DWIDTH 19 0
BBX 15 22 2 0
BITMAP
01E0
01C0
0300
0000
F01E
F01E
F01E
F01E
F01E
F01E
F01E
F01E
F01E
F01E
F01E
F01E
F01E
F03E
783C
7FFC
3FF8
0FE0
ENDCHAR
STARTCHAR Ucircumflex
ENCODING 219
SWIDTH 812 0
DWIDTH 19 0
BBX 15 22 2 0
BITMAP
03C0
07E0
0C30
0000
F01E
F01E
F01E
F01E
F01E
F01E
F01E
F01E
F01E
F01E
F01E
F01E
F01E
F03E
783C
7FFC
3FF8
0FE0
ENDCHAR
STARTCHAR Udieresis
ENCODING 220
SWIDTH 812 0
DWIDTH 19 0
BBX 15 22 2 0
BITMAP
1CE0
1CE0
1CE0
0000
F01E
F01E
F01E
F01E
F01E
F01E
F01E
F01E
F01E
F01E
F01E
F01E
F01E
F03E
783C
7FFC
3FF8
0FE0
ENDCHAR
STARTCHAR Yacute
ENCODING 221
SWIDTH 724 0
DWIDTH 17 0
BBX 18 22 -1 0
BITMAP
007800
007000
00C000
000000
F807C0
7C0F80
3C1F00
3E1F00
1F3E00
0F7C00
0FFC00
07F800
03F000
03F000
01E000
01E000
01E000
01E000
01E000
01E000
01E000
01E000
ENDCHAR
STARTCHAR Thorn
ENCODING 222
SWIDTH 737 0
DWIDTH 18 0
BBX 14 18 2 0
BITMAP
F000
F000
F000
F000
FFE0
FFF0
FFF8
F07C
F03C
F03C
F03C
F07C
FFF8
FFF0
FFE0
F000
F000
F000
ENDCHAR
STARTCHAR germandbls
ENCODING 223
SWIDTH 719 0
DWIDTH 17 0
BBX 14 18 2 0
BITMAP
1F80
7FE0
7FE0
F8F0
F0F0
F1F0
F7C0
F780
F7C0
F7E0
F3F8
F0F8
F03C
F03C
F47C
F7FC
F7F8
F3E0
ENDCHAR
STARTCHAR agrave
ENCODING 224
SWIDTH 674 0
DWIDTH 16 0
BBX 13 19 1 0
BITMAP
1C00
0E00
0700
0380
0000
0000
1FC0
7FF0
7FF0
40F8
0078
1FF8
7FF8
FFF8
F078
F0F8
FFF8
7FF8
3E78
ENDCHAR
STARTCHAR aacute
ENCODING 225
SWIDTH 674 0
DWIDTH 16 0
BBX 13 19 1 0
BITMAP
00F0
01C0
0380
0300
0000
0000
1FC0
7FF0
7FF0
40F8
0078
1FF8
7FF8
FFF8
F078
F0F8
FFF8
7FF8
3E78
ENDCHAR
STARTCHAR acircumflex
ENCODING 226
SWIDTH 674 0
DWIDTH 16 0
BBX 13 19 1 0
BITMAP
03C0
07C0
0E60
0C30
0000
0000
1FC0
7FF0
7FF0
40F8
0078
1FF8
7FF8
FFF8
F078
F0F8
FFF8
7FF8
3E78
ENDCHAR
STARTCHAR atilde
ENCODING 227
SWIDTH 674 0
DWIDTH 16 0
BBX 13 19 1 0
BITMAP
0E60
0F60
19E0
18C0
0000
0000
1FC0
7FF0
7FF0
40F8
0078
1FF8
7FF8
FFF8
F078
F0F8
FFF8
7FF8
3E78
ENDCHAR
STARTCHAR adieresis
ENCODING 228
SWIDTH 674 0
DWIDTH 16 0
BBX 13 19 1 0
BITMAP
1CE0
1CE0
1CE0
0000
0000
0000
1FC0
7FF0
7FF0
40F8
0078
1FF8
7FF8
FFF8
F078
F0F8
FFF8
7FF8
3E78
ENDCHAR
STARTCHAR aring
ENCODING 229
SWIDTH 674 0
DWIDTH 16 0
BBX 13 21 1 0
BITMAP
0380
07E0
0E60
0C60
0E60
07E0
0380
0000
1FC0
7FF0
7FF0
40F8
0078
1FF8
7FF8
FFF8
F078
F0F8
FFF8
7FF8
3E78
ENDCHAR
STARTCHAR ae
ENCODING 230
SWIDTH 1047 0
DWIDTH 25 0
BBX 23 13 1 0
BITMAP
1F87E0
7FEFF8
7FFFFC
40FC3C
00781E
1FFFFE
7FFFFE
FFFFFE
F07800
F0FC0C
FFFFFC
7FDFFC
3F07F0
ENDCHAR
STARTCHAR ccedilla
ENCODING 231
SWIDTH 592 0
DWIDTH 14 0
BBX 12 18 1 -5
BITMAP
0FE0
3FF0
7FF0
7C10
F800
F000
F000
F000
F800
7C10
7FF0
3FF0
0FE0
0100
0180
0180
0F80
0F00
ENDCHAR
STARTCHAR egrave
ENCODING 232
SWIDTH 678 0
DWIDTH 16 0
BBX 14 19 1 0
BITMAP
1C00
0E00
0700
0180
0000
0000
0FC0
3FF0
7FF8
7878
F03C
FFFC
FFFC
FFFC
F000
7818
7FF8
3FF8
0FE0
ENDCHAR
STARTCHAR eacute
ENCODING 233
SWIDTH 678 0
DWIDTH 16 0
BBX 14 19 1 0
BITMAP
0070
00E0
01C0
0380
0000
0000
0FC0
3FF0
7FF8
7878
F03C
FFFC
FFFC
FFFC
F000
7818
7FF8
3FF8
0FE0
ENDCHAR
STARTCHAR ecircumflex
ENCODING 234
SWIDTH 678 0
DWIDTH 16 0
BBX 14 19 1 0
BITMAP
03C0
07E0
0660
0C30
0000
0000
0FC0
3FF0
7FF8
7878
F03C
FFFC
FFFC
FFFC
F000
7818
7FF8
3FF8
0FE0
ENDCHAR
STARTCHAR edieresis
ENCODING 235
SWIDTH 678 0
DWIDTH 16 0
BBX 14 19 1 0
BITMAP
0E70
0E70
0E70
0000
0000
0000
0FC0
3FF0
7FF8
7878
F03C
FFFC
FFFC
FFFC
F000
7818
7FF8
3FF8
0FE0
ENDCHAR
STARTCHAR igrave
ENCODING 236
SWIDTH 342 0
DWIDTH 8 0
BBX 6 19 0 0
BITMAP
E0
70
38
1C
00
00
3C
3C
3C
3C
3C
3C
3C
3C
3C
3C
3C
3C
3C
ENDCHAR
STARTCHAR iacute
ENCODING 237
SWIDTH 342 0
DWIDTH 8 0
BBX 7 19 2 0
BITMAP
1E
1C
38
60
00
00
F0
F0
F0
F0
F0
F0
F0
F0
F0
F0
F0
F0
F0
ENDCHAR
STARTCHAR icircumflex
ENCODING 238
SWIDTH 342 0
DWIDTH 8 0
BBX 8 19 1 0
BITMAP
3C
7C
66
C3
00
00
78
78
78
78
78
78
78
78
78
78
78
78
78
ENDCHAR
STARTCHAR idieresis
ENCODING 239
SWIDTH 342 0
DWIDTH 8 0
BBX 8 19 0 0
BITMAP
E7
E7
E7
00
00
00
3C
3C
3C
3C
3C
3C
3C
3C
3C
3C
3C
3C
3C
ENDCHAR
STARTCHAR eth
ENCODING 240
SWIDTH 687 0
DWIDTH 16 0
BBX 14 18 1 0
BITMAP
1E18
0FF8
0FC0
7FC0
71E0
00F0
1FF0
3FF8
7FF8
F87C
F03C
F03C
F03C
F03C
7878
7FF8
3FF0
0FC0
ENDCHAR
STARTCHAR ntilde
ENCODING 241
SWIDTH 711 0
DWIDTH 17 0
BBX 13 19 2 0
BITMAP
0C60
1E60
1BC0
19C0
0000
0000
F3E0
FFF0
FFF8
F8F8
F078
F078
F078
F078
F078
F078
F078
F078
F078
ENDCHAR
STARTCHAR ograve
ENCODING 242
SWIDTH 687 0
DWIDTH 16 0
BBX 14 19 1 0
BITMAP
1C00
0E00
0700
0180
0000
0000
0FC0
3FF0
7FF8
7878
F03C
F03C
F03C
F03C
F03C
7878
7FF8
3FF0
0FC0
ENDCHAR
STARTCHAR oacute
ENCODING 243
SWIDTH 687 0
DWIDTH 16 0
BBX 14 19 1 0
BITMAP
0070
00E0
01C0
0380
0000
0000
0FC0
3FF0
7FF8
7878
F03C
F03C
F03C
F03C
F03C
7878
7FF8
3FF0
0FC0
ENDCHAR
STARTCHAR ocircumflex
ENCODING 244
SWIDTH 687 0
DWIDTH 16 0
BBX 14 19 1 0
BITMAP
03C0
07E0
0660
0C30
0000
0000
0FC0
3FF0
7FF8
7878
F03C
F03C
F03C
F03C
F03C
7878
7FF8
3FF0
0FC0
ENDCHAR
STARTCHAR otilde
ENCODING 245
SWIDTH 687 0
DWIDTH 16 0
BBX 14 19 1 0
BITMAP
0670
0F60
0DE0
0CC0
0000
0000
0FC0
3FF0
7FF8
7878
F03C
F03C
F03C
F03C
F03C
7878
7FF8
3FF0
0FC0
ENDCHAR
STARTCHAR odieresis
ENCODING 246
SWIDTH 687 0
DWIDTH 16 0
BBX 14 19 1 0
BITMAP
0E70
0E70
0E70
0000
0000
0000
0FC0
3FF0
7FF8
7878
F03C
F03C
F03C
F03C
F03C
7878
7FF8
3FF0
0FC0
ENDCHAR
STARTCHAR divide
ENCODING 247
SWIDTH 837 0
DWIDTH 20 0
BBX 16 15 2 0
BITMAP
03C0
03C0
03C0
03C0
0000
0000
FFFF
FFFF
FFFF
0000
0000
03C0
03C0
03C0
03C0
ENDCHAR
STARTCHAR oslash
ENCODING 248
SWIDTH 687 0
DWIDTH 16 0
BBX 14 13 1 0
BITMAP
0FCC
3FF8
7FF8
7878
F0FC
F1BC
F33C
F63C
FC3C
7878
7FF8
7FF0
DFC0
ENDCHAR
STARTCHAR ugrave
ENCODING 249
SWIDTH 711 0
DWIDTH 17 0
BBX 13 19 2 0
BITMAP
3C00
0E00
0700
0300
0000
0000
F078
F078
F078
F078
F078
F078
F078
F078
F078
F8F8
FFF8
7F78
3E78
ENDCHAR
STARTCHAR uacute
ENCODING 250
SWIDTH 711 0
DWIDTH 17 0
BBX 13 19 2 0
BITMAP
00E0
01C0
0380
0700
0000
0000
F078
F078
F078
F078
F078
F078
F078
F078
F078
F8F8
FFF8
7F78
3E78
ENDCHAR
STARTCHAR ucircumflex
ENCODING 251
SWIDTH 711 0
DWIDTH 17 0
BBX 13 19 2 0
BITMAP
0380
07C0
0CE0
1860
0000
0000
F078
F078
F078
F078
F078
F078
F078
F078
F078
F8F8
FFF8
7F78
3E78
ENDCHAR
STARTCHAR udieresis
ENCODING 252
SWIDTH 711 0
DWIDTH 17 0
BBX 13 19 2 0
BITMAP
1CE0
1CE0
1CE0
0000
0000
0000
F078
F078
F078
F078
F078
F078
F078
F078
F078
F8F8
FFF8
7F78
3E78
ENDCHAR
STARTCHAR yacute
ENCODING 253
SWIDTH 651 0
DWIDTH 16 0
BBX 15 24 0 -5
BITMAP
0070
00E0
01C0
0380
0000
0000
F83E
783C
783C
3C7C
3C78
3EF8
1EF0
1FF0
0FF0
0FE0
07E0
07C0
07C0
07C0
0780
3F80
3F00
3E00
ENDCHAR
STARTCHAR thorn
ENCODING 254
SWIDTH 715 0
DWIDTH 17 0
BBX 14 23 2 -5
BITMAP
F000
F000
F000
F000
F000
F3E0
FFF0
FFF8
F878
F03C
F03C
F03C
F03C
F03C
F878
FFF8
FFF0
F3E0
F000
F000
F000
F000
F000
ENDCHAR
STARTCHAR ydieresis
ENCODING 255
SWIDTH 651 0
DWIDTH 16 0
BBX 15 24 0 -5
BITMAP
0E70
0E70
0E70
0000
0000
0000
F83E
783C
783C
3C7C
3C78
3EF8
1EF0
1FF0
0FF0
0FE0
07E0
07C0
07C0
07C0
0780
3F80
3F00
3E00
ENDCHAR
STARTCHAR Cacute
ENCODING 262
SWIDTH 733 0
DWIDTH 18 0
BBX 15 22 1 0
BITMAP
0078
00E0
00C0
0000
03F8
0FFE
3FFE
3E0E
7C02
7800
F000
F000
F000
F000
F000
F000
7800
7C02
3E0E
3FFE
0FFE
03F8
ENDCHAR
STARTCHAR cacute
ENCODING 263
SWIDTH 592 0
DWIDTH 14 0
BBX 12 19 1 0
BITMAP
0070
00E0
01C0
0300
0000
0000
0FE0
3FF0
7FF0
7C10
F800
F000
F000
F000
F800
7C10
7FF0
3FF0
0FE0
ENDCHAR
STARTCHAR Ccaron
ENCODING 268
SWIDTH 733 0
DWIDTH 18 0
BBX 15 22 1 0
BITMAP
031C
01B8
01F0
0000
03F8
0FFE
3FFE
3E0E
7C02
7800
F000
F000
F000
F000
F000
F000
7800
7C02
3E0E
3FFE
0FFE
03F8
ENDCHAR
STARTCHAR ccaron
ENCODING 269
SWIDTH 592 0
DWIDTH 14 0
BBX 12 19 1 0
BITMAP
0C30
0660
07E0
03C0
0000
0000
0FE0
3FF0
7FF0
7C10
F800
F000
F000
F000
F800
7C10
7FF0
3FF0
0FE0
ENDCHAR
STARTCHAR dcroat
ENCODING 273
SWIDTH 715 0
DWIDTH 17 0
BBX 16 18 1 0
BITMAP
003C
003C
03FF
03FF
003C
1F3C
3FFC
7FFC
787C
F03C
F03C
F03C
F03C
F03C
787C
7FFC
3FFC
1F3C
ENDCHAR
STARTCHAR Gbreve
ENCODING 286
SWIDTH 820 0
DWIDTH 20 0
BBX 17 22 1 0
BITMAP
063000
07F000
03E000
000000
03FC00
0FFF00
3FFF00
3E0700
7C0100
780000
F00000
F00000
F03F80
F03F80
F03F80
F00780
780780
7C0780
3E0780
1FFF80
0FFF80
03FC00
ENDCHAR
STARTCHAR gbreve
ENCODING 287
SWIDTH 715 0
DWIDTH 17 0
BBX 14 24 1 -5
BITMAP
0C70
0FE0
07C0
0000
0000
0000
1F3C
3FFC
7FFC
787C
F03C
F03C
F03C
F03C
F03C
787C
7FFC
3FFC
1F3C
003C
207C
3FF8
3FF0
1FC0
ENDCHAR
STARTCHAR Idotaccent
ENCODING 304
SWIDTH 372 0
DWIDTH 9 0
BBX 4 22 2 0
BITMAP
E0
E0
E0
00
F0
F0
F0
F0
F0
F0
F0
F0
F0
F0
F0
F0
F0
F0
F0
F0
F0
F0
ENDCHAR
STARTCHAR dotlessi
ENCODING 305
SWIDTH 342 0
DWIDTH 8 0
BBX 4 13 2 0
BITMAP
F0
F0
F0
F0
F0
F0
F0
F0
F0
F0
F0
F0
F0
ENDCHAR
STARTCHAR Lslash
ENCODING 321
SWIDTH 642 0
DWIDTH 15 0
BBX 15 18 -1 0
BITMAP
1E00
1E00
1E00
1E40
1EE0
1FE0
1FC0
1F80
1E00
3E00
7E00
FE00
7E00
1E00
1E00
1FFE
1FFE
1FFE
ENDCHAR
STARTCHAR lslash
ENCODING 322
SWIDTH 371 0
DWIDTH 9 0
BBX 9 18 0 0
BITMAP
3C00
3C00
3C00
3C00
3C00
3F00
3F80
3E00
7C00
FC00
FC00
3C00
3C00
3C00
3C00
3C00
3C00
3C00
ENDCHAR
STARTCHAR OE
ENCODING 338
SWIDTH 1166 0
DWIDTH 28 0
BBX 25 18 1 0
BITMAP
01FFFF80
0FFFFF80
1FFFFF80
3F078000
7C078000
78078000
F0078000
F007FF00
F007FF00
F007FF00
F0078000
F0078000
78078000
7C078000
3F078000
1FFFFF80
0FFFFF80
01FFFF80
ENDCHAR
STARTCHAR oe
ENCODING 339
SWIDTH 1094 0
DWIDTH 26 0
BBX 24 13 1 0
BITMAP
0FC3F0
3FE7FC
7FFFFE
787E1E
F03C0F
F03FFF
F03FFF
F03FFF
F03C00
787E06
7FFFFE
3FFFFE
0FC3F8
ENDCHAR
STARTCHAR Scedilla
ENCODING 350
SWIDTH 720 0
DWIDTH 17 0
BBX 14 23 2 -5
BITMAP
1FF0
3FF8
7FF8
F838
F008
F000
F800
FF80
7FF0
3FF8
07FC
007C
003C
803C
E07C
FFF8
FFF0
3FC0
0300
0300
0380
0F00
0F00
ENDCHAR
STARTCHAR scedilla
ENCODING 351
SWIDTH 595 0
DWIDTH 14 0
BBX 12 18 1 -5
BITMAP
3F80
7FE0
FFE0
F060
F800
FFC0
7FE0
0FF0
00F0
C0F0
FFF0
FFE0
3F80
0200
0300
0300
1F00
1E00
ENDCHAR
STARTCHAR Scaron
ENCODING 352
SWIDTH 720 0
DWIDTH 17 0
BBX 14 22 2 0
BITMAP
1860
0DC0
0780
0000
1FF0
3FF8
7FF8
F838
F008
F000
F800
FF80
7FF0
3FF8
07FC
007C
003C
803C
E07C
FFF8
FFF0
3FC0
ENDCHAR
STARTCHAR scaron
ENCODING 353
SWIDTH 595 0
DWIDTH 14 0
BBX 12 19 1 0
BITMAP
1860
1CC0
0F80
0700
0000
0000
3F80
7FE0
FFE0
F060
F800
FFC0
7FE0
0FF0
00F0
C0F0
FFF0
FFE0
3F80
ENDCHAR
STARTCHAR Ydieresis
ENCODING 376
SWIDTH 724 0
DWIDTH 17 0
BBX 18 22 -1 0
BITMAP
073800
073800
073800
000000
F807C0
7C0F80
3C1F00
3E1F00
1F3E00
0F7C00
0FFC00
07F800
03F000
03F000
01E000
01E000
01E000
01E000
01E000
01E000
01E000
01E000
ENDCHAR
STARTCHAR Zcaron
ENCODING 381
SWIDTH 725 0
DWIDTH 17 0
BBX 15 22 1 0
BITMAP
0C30
06E0
03C0
0000
FFFE
FFFE
FFFE
007E
007C
00F8
01F0
03E0
07C0
07C0
0F80
1F00
3E00
7C00
FC00
FFFE
FFFE
FFFE
ENDCHAR
STARTCHAR zcaron
ENCODING 382
SWIDTH 582 0
DWIDTH 14 0
BBX 12 19 1 0
BITMAP
38E0
1DC0
0F80
0700
0000
0000
FFF0
FFF0
FFF0
03E0
07E0
0FC0
1F80
3F00
7E00
7C00
FFF0
FFF0
FFF0
ENDCHAR
STARTCHAR florin
ENCODING 402
SWIDTH 695 0
DWIDTH 17 0
BBX 16 23 0 -5
BITMAP
003E
007F
00FF
00F1
01F0
01E0
01E0
01E0
1FFC
1FFC
1FFC
03C0
03C0
07C0
0780
0780
0780
0780
0F80
8F00
FF00
FE00
7C00
ENDCHAR
STARTCHAR circumflex
ENCODING 710
SWIDTH 500 0
DWIDTH 12 0
BBX 9 4 2 15
BITMAP
1C00
3E00
7700
E380
ENDCHAR
STARTCHAR caron
ENCODING 711
SWIDTH 500 0
DWIDTH 12 0
BBX 9 4 2 15
BITMAP
E380
7700
3E00
1C00
ENDCHAR
STARTCHAR breve
ENCODING 728
SWIDTH 500 0
DWIDTH 12 0
BBX 8 3 2 16
BITMAP
C3
FF
3C
ENDCHAR
STARTCHAR dotaccent
ENCODING 729
SWIDTH 500 0
DWIDTH 12 0
BBX 3 3 4 16
BITMAP
E0
E0
E0
ENDCHAR
STARTCHAR ring
ENCODING 730
SWIDTH 500 0
DWIDTH 12 0
BBX 7 7 3 14
BITMAP
38
7C
C6
C6
C6
7C
38
ENDCHAR
STARTCHAR ogonek
ENCODING 731
SWIDTH 500 0
DWIDTH 12 0
BBX 5 5 4 -5
BITMAP
60
C0
C0
F8
78
ENDCHAR
STARTCHAR tilde
ENCODING 732
SWIDTH 500 0
DWIDTH 12 0
BBX 8 4 2 15
BITMAP
73
FB
DF
CE
ENDCHAR
STARTCHAR hungarumlaut
ENCODING 733
SWIDTH 500 0
DWIDTH 12 0
BBX 9 4 2 15
BITMAP
3B80
7300
6600
CC00
ENDCHAR
STARTCHAR Omega
ENCODING 937
SWIDTH 769 0
DWIDTH 18 0
BBX 17 17 1 0
BITMAP
07E000
1FF800
3FFC00
7C3E00
781E00
F00F00
F00F00
F00F00
F00F00
F00F00
700E00
781E00
3C3C00
1E7800
FE7F80
FE7F80
FE7F80
ENDCHAR
STARTCHAR pi
ENCODING 960
SWIDTH 644 0
DWIDTH 15 0
BBX 16 13 0 0
BITMAP
3FFF
7FFF
FFFF
CE38
CE38
1E38
1E78
1C78
1C70
1C70
1C70
3C70
3CF0
ENDCHAR
STARTCHAR endash
ENCODING 8211
SWIDTH 500 0
DWIDTH 12 0
BBX 12 3 0 6
BITMAP
FFF0
FFF0
FFF0
ENDCHAR
STARTCHAR emdash
ENCODING 8212
SWIDTH 1000 0
DWIDTH 24 0
BBX 24 3 0 6
BITMAP
FFFFFF
FFFFFF
FFFFFF
ENDCHAR
STARTCHAR quoteleft
ENCODING 8216
SWIDTH 379 0
DWIDTH 9 0
BBX 5 7 2 11
BITMAP
38
78
70
F0
F0
F0
F0
ENDCHAR
STARTCHAR quoteright
ENCODING 8217
SWIDTH 379 0
DWIDTH 9 0
BBX 5 7 2 11
BITMAP
78
78
78
78
70
F0
E0
ENDCHAR
STARTCHAR quotesinglbase
ENCODING 8218
SWIDTH 379 0
DWIDTH 9 0
BBX 5 7 2 -2
BITMAP
78
78
78
78
70
E0
C0
ENDCHAR
STARTCHAR quotedblleft
ENCODING 8220
SWIDTH 657 0
DWIDTH 16 0
BBX 11 7 2 11
BITMAP
38E0
79E0
71C0
F3C0
F3C0
F3C0
F3C0
ENDCHAR
STARTCHAR quotedblright
ENCODING 8221
SWIDTH 657 0
DWIDTH 16 0
BBX 11 7 2 11
BITMAP
79E0
79E0
79E0
79E0
71C0
F3C0
E380
ENDCHAR
STARTCHAR quotedblbase
ENCODING 8222
SWIDTH 657 0
DWIDTH 16 0
BBX 11 7 2 -2
BITMAP
79E0
79E0
79E0
79E0
71C0
E3C0
C380
ENDCHAR
STARTCHAR dagger
ENCODING 8224
SWIDTH 500 0
DWIDTH 12 0
BBX 10 20 1 -2
BITMAP
1E00
1E00
1E00
1E00
1E00
FFC0
FFC0
FFC0
1E00
1E00
1E00
1E00
1E00
1E00
1E00
1E00
1E00
1E00
1E00
1E00
ENDCHAR
STARTCHAR daggerdbl
ENCODING 8225
SWIDTH 500 0
DWIDTH 12 0
BBX 10 20 1 -2
BITMAP
1E00
1E00
1E00
1E00
1E00
FFC0
FFC0
FFC0
1E00
1E00
1E00
1E00
1E00
FFC0
FFC0
FFC0
1E00
1E00
1E00
1E00
ENDCHAR
STARTCHAR bullet
ENCODING 8226
SWIDTH 639 0
DWIDTH 15 0
BBX 8 8 3 5
BITMAP
3C
7E
FF
FF
FF
FF
7E
3C
ENDCHAR
STARTCHAR ellipsis
ENCODING 8230
SWIDTH 1000 0
DWIDTH 24 0
BBX 20 5 2 0
BITMAP
F0F0F0
F0F0F0
F0F0F0
F0F0F0
F0F0F0
ENDCHAR
STARTCHAR perthousand
ENCODING 8240
SWIDTH 1439 0
DWIDTH 35 0
BBX 33 18 1 0
BITMAP
3E00C00000
7F01800000
F783800000
E383000000
E386000000
E38E000000
E38C000000
F79C000000
7F18F83E00
3E31FC7F00
0073DEF780
00638EE380
00E38EE380
01C38EE380
01838EE380
0383DEF780
0301FC7F00
0600F83E00
ENDCHAR
STARTCHAR guilsinglleft
ENCODING 8249
SWIDTH 412 0
DWIDTH 10 0
BBX 6 11 2 1
BITMAP
04
0C
1C
78
F0
C0
F0
78
1C
0C
04
ENDCHAR
STARTCHAR guilsinglright
ENCODING 8250
SWIDTH 412 0
DWIDTH 10 0
BBX 6 11 2 1
BITMAP
80
C0
E0
78
3C
0C
3C
78
E0
C0
80
ENDCHAR
STARTCHAR Euro
ENCODING 8364
SWIDTH 695 0
DWIDTH 17 0
BBX 15 18 0 0
BITMAP
01F8
07FE
0FFE
1F86
1E02
3E00
FFF8
FFF0
3C00
3C00
FFE0
FFC0
3E00
1E02
1F86
0FFE
07FE
01F8
ENDCHAR
STARTCHAR trademark
ENCODING 8482
SWIDTH 1000 0
DWIDTH 24 0
BBX 15 7 3 11
BITMAP
FDCE
FDCE
31FE
31B6
31B6
3186
3186
ENDCHAR
STARTCHAR partialdiff
ENCODING 8706
SWIDTH 543 0
DWIDTH 13 0
BBX 12 16 1 0
BITMAP
0F80
1E40
1C60
0060
0070
0070
1E70
7970
70F0
E0F0
E0F0
E0E0
E0E0
E1C0
7380
1E00
ENDCHAR
STARTCHAR Delta
ENCODING 8710
SWIDTH 696 0
DWIDTH 17 0
BBX 17 17 0 0
BITMAP
03E000
03E000
03E000
07F000
077000
077000
0F7800
0E3800
1E3C00
1C1C00
1C1C00
3C1E00
380E00
780F00
7FFF00
7FFF00
FFFF80
ENDCHAR
STARTCHAR product
ENCODING 8719
SWIDTH 787 0
DWIDTH 19 0
BBX 15 22 2 -5
BITMAP
FFFE
FFFE
FFFE
F01E
F01E
F01E
F01E
F01E
F01E
F01E
F01E
F01E
F01E
F01E
F01E
F01E
F01E
F01E
F01E
F01E
F01E
F01E
ENDCHAR
STARTCHAR summation
ENCODING 8721
SWIDTH 717 0
DWIDTH 17 0
BBX 16 22 1 -5
BITMAP
FFFE
FFFE
FFFE
7800
3C00
1E00
0F00
0780
03C0
01E0
00F0
01E0
03C0
0780
0F80
0F00
1E00
3C00
7800
FFFF
FFFF
FFFF
ENDCHAR
STARTCHAR minus
ENCODING 8722
SWIDTH 837 0
DWIDTH 20 0
BBX 15 3 3 6
BITMAP
FFFE
FFFE
FFFE
ENDCHAR
STARTCHAR fraction
ENCODING 8725
SWIDTH 166 0
DWIDTH 4 0
BBX 14 18 -5 0
BITMAP
003C
0038
0078
00F0
00E0
01E0
01C0
03C0
0380
0700
0F00
0E00
1E00
1C00
3C00
7800
7000
F000
ENDCHAR
STARTCHAR periodcentered
ENCODING 8729
SWIDTH 379 0
DWIDTH 9 0
BBX 4 5 2 6
BITMAP
F0
F0
F0
F0
F0
ENDCHAR
STARTCHAR radical
ENCODING 8730
SWIDTH 666 0
DWIDTH 16 0
BBX 15 20 1 0
BITMAP
000E
000E
000C
0018
0018
0038
0030
0030
0060
7860
F860
38C0
1CC0
1DC0
0F80
0F80
0F00
0700
0700
0600
ENDCHAR
STARTCHAR infinity
ENCODING 8734
SWIDTH 833 0
DWIDTH 20 0
BBX 15 10 2 2
BITMAP
3838
7CFC
FEFE
C7E6
8382
8382
C7C6
FEFE
7E7C
3C38
ENDCHAR
STARTCHAR integral
ENCODING 8747
SWIDTH 609 0
DWIDTH 15 0
BBX 13 23 1 -5
BITMAP
00F0
01F8
01B8
03B8
0300
0300
0700
0700
0700
0700
0700
0700
0700
0700
0700
0700
0700
0600
0600
EE00
EC00
FC00
7800
ENDCHAR
STARTCHAR approxequal
ENCODING 8776
SWIDTH 837 0
DWIDTH 20 0
BBX 15 10 3 2
BITMAP
3E02
7F86
FFFE
C3FC
80F8
3E02
7F86
FFFE
C3FC
00F8
ENDCHAR
STARTCHAR notequal
ENCODING 8800
SWIDTH 837 0
DWIDTH 20 0
BBX 15 15 3 0
BITMAP
001C
0038
0038
FFFE
FFFE
FFFE
01C0
0380
0700
FFFE
FFFE
FFFE
3800
7000
2000
ENDCHAR
STARTCHAR lessequal
ENCODING 8804
SWIDTH 837 0
DWIDTH 20 0
BBX 15 14 3 0
BITMAP
0006
007E
07FE
7FE0
FE00
FE00
7FE0
07FE
007E
0006
0000
FFFE
FFFE
FFFE
ENDCHAR
STARTCHAR greaterequal
ENCODING 8805
SWIDTH 837 0
DWIDTH 20 0
BBX 15 14 3 0
BITMAP
C000
FC00
FFC0
0FFC
00FE
00FE
0FFC
FFC0
FC00
C000
0000
FFFE
FFFE
FFFE
ENDCHAR
STARTCHAR lozenge
ENCODING 9674
SWIDTH 494 0
DWIDTH 12 0
BBX 12 23 0 -5
BITMAP
0600
0600
0F00
0900
1980
1080
30C0
2040
6060
4020
C030
8010
4030
4020
6060
2040
30C0
1080
1980
0900
0F00
0600
0600
ENDCHAR
STARTCHAR fi
ENCODING 64257
SWIDTH 741 0
DWIDTH 18 0
BBX 15 18 0 0
BITMAP
0FDE
1FDE
3FDE
3C1E
3C00
FFFE
FFFE
FFFE
3C1E
3C1E
3C1E
3C1E
3C1E
3C1E
3C1E
3C1E
3C1E
3C1E
ENDCHAR
STARTCHAR fl
ENCODING 64258
SWIDTH 741 0
DWIDTH 18 0
BBX 15 18 0 0
BITMAP
0FFE
1FFE
3FFE
3C1E
3C1E
FF9E
FF9E
FF9E
3C1E
3C1E
3C1E
3C1E
3C1E
3C1E
3C1E
3C1E
3C1E
3C1E
ENDCHAR
STARTCHAR .notdef
ENCODING -1
SWIDTH 600 0
DWIDTH 14 0
BBX 12 21 1 -4
BITMAP
FFF0
8010
8010
8010
8010
8010
8010
8010
8010
8010
8010
8010
8010
8010
8010
8010
8010
8010
8010
8010
FFF0
ENDCHAR
STARTCHAR .null
ENCODING -1
SWIDTH 0 0
DWIDTH 0 0
BBX 1 1 0 0
BITMAP
00
ENDCHAR
STARTCHAR nonmarkingreturn
ENCODING -1
SWIDTH 348 0
DWIDTH 8 0
BBX 1 1 0 0
BITMAP
00
ENDCHAR
STARTCHAR c6459
ENCODING -1
SWIDTH 500 0
DWIDTH 12 0
BBX 8 3 2 15
BITMAP
E7
E7
E7
ENDCHAR
STARTCHAR c6460
ENCODING -1
SWIDTH 500 0
DWIDTH 12 0
BBX 5 3 4 15
BITMAP
38
70
E0
ENDCHAR
STARTCHAR c6461
ENCODING -1
SWIDTH 500 0
DWIDTH 12 0
BBX 8 3 2 15
BITMAP
73
FF
CE
ENDCHAR
STARTCHAR c6462
ENCODING -1
SWIDTH 500 0
DWIDTH 12 0
BBX 5 3 3 15
BITMAP
E0
70
38
ENDCHAR
STARTCHAR c6463
ENCODING -1
SWIDTH 500 0
DWIDTH 12 0
BBX 9 3 2 15
BITMAP
3E00
7700
E380
ENDCHAR
STARTCHAR c6466
ENCODING -1
SWIDTH 500 0
DWIDTH 12 0
BBX 9 3 2 15
BITMAP
E380
7700
3E00
ENDCHAR
STARTCHAR c6467
ENCODING -1
SWIDTH 500 0
DWIDTH 12 0
BBX 8 3 2 15
BITMAP
C3
7E
3C
ENDCHAR
STARTCHAR c6468
ENCODING -1
SWIDTH 500 0
DWIDTH 12 0
BBX 3 3 4 15
BITMAP
E0
E0
E0
ENDCHAR
ENDFONT
